<?xml version="1.0" standalone="no"?>
<!DOCTYPE svg PUBLIC "-//W3C//DTD SVG 20010904//EN"
 "http://www.w3.org/TR/2001/REC-SVG-20010904/DTD/svg10.dtd">
<svg version="1.0" xmlns="http://www.w3.org/2000/svg"
 width="24.000000pt" height="24.000000pt" viewBox="0 0 24.000000 24.000000"
 preserveAspectRatio="xMidYMid meet">

<g transform="translate(0.000000,24.000000) scale(0.100000,-0.100000)"
fill="#000000" stroke="none">
<path d="M49 185 c-7 -19 -19 -35 -26 -35 -16 0 -16 -5 2 -68 l16 -52 79 0 79
0 16 52 c18 63 18 68 2 68 -7 0 -19 16 -26 35 -12 35 -13 35 -71 35 -58 0 -59
0 -71 -35z m121 6 c0 -5 3 -16 6 -25 5 -14 -3 -16 -56 -16 -53 0 -61 2 -56 16
3 9 6 20 6 25 0 5 23 9 50 9 28 0 50 -4 50 -9z m27 -101 l-11 -40 -66 0 -66 0
-11 40 -10 40 87 0 87 0 -10 -40z"/>
<path d="M70 90 c0 -11 5 -20 10 -20 6 0 10 9 10 20 0 11 -4 20 -10 20 -5 0
-10 -9 -10 -20z"/>
<path d="M110 90 c0 -11 5 -20 10 -20 6 0 10 9 10 20 0 11 -4 20 -10 20 -5 0
-10 -9 -10 -20z"/>
<path d="M150 90 c0 -11 5 -20 10 -20 6 0 10 9 10 20 0 11 -4 20 -10 20 -5 0
-10 -9 -10 -20z"/>
</g>
</svg>
