<?xml version="1.0" standalone="no"?>
<!DOCTYPE svg PUBLIC "-//W3C//DTD SVG 20010904//EN"
 "http://www.w3.org/TR/2001/REC-SVG-20010904/DTD/svg10.dtd">
<svg version="1.0" xmlns="http://www.w3.org/2000/svg"
 width="64.000000pt" height="64.000000pt" viewBox="0 0 64.000000 64.000000"
 preserveAspectRatio="xMidYMid meet">

<g transform="translate(0.000000,64.000000) scale(0.100000,-0.100000)"
fill="#00000" stroke="none">
<path d="M30 388 c-35 -78 -20 -195 34 -263 25 -31 50 -28 28 3 -51 69 -70
180 -44 245 l12 27 173 0 c112 0 177 -4 184 -11 8 -8 17 -8 31 0 35 18 88 13
117 -11 47 -42 50 -123 4 -164 -22 -19 -92 -25 -134 -11 -16 6 -25 -2 -47 -39
-16 -25 -28 -49 -28 -55 0 -21 21 -7 45 30 26 38 27 38 65 29 33 -9 46 -7 84
11 70 34 94 105 60 176 -27 57 -90 84 -151 66 -20 -6 -35 -6 -38 0 -4 5 -88 9
-191 9 l-185 0 -19 -42z"/>
<path d="M462 344 c-34 -23 -27 -83 11 -104 24 -13 30 -13 55 0 37 21 44 81
10 104 -12 9 -29 16 -38 16 -9 0 -26 -7 -38 -16z m69 -30 c17 -21 0 -49 -31
-49 -31 0 -48 28 -31 49 8 9 21 16 31 16 10 0 23 -7 31 -16z"/>
<path d="M10 47 c0 -24 141 -41 279 -34 139 8 171 14 171 34 0 10 -6 13 -16 9
-49 -19 -216 -28 -307 -17 -52 6 -102 14 -111 17 -10 4 -16 1 -16 -9z"/>
</g>
</svg>
